<svg id="图层_1" data-name="图层 1" xmlns="http://www.w3.org/2000/svg" width="653.5" height="785" viewBox="0 0 653.5 785">
  <path d="M548.69.5H537l-.85,0-77,4.39a15,15,0,0,0-13.07,9.38l-158,9.24A15,15,0,0,0,278,28.28l-7,7.5q-.33.34-.63.72h-39.3a15.38,15.38,0,0,0-1.29-1.39A15,15,0,0,0,219.5,31l-.81,0-204,11A15,15,0,0,0,.52,57.75L6,167.25a15.05,15.05,0,0,0,4.84,10.31l55.41,50.79L69.76,312,24.89,361.42A15,15,0,0,0,21,372.54l27,387a15,15,0,0,0,15,14H89.78l.07.24a15,15,0,0,0,14.39,10.76H139a15.09,15.09,0,0,0,5.44-1l15.36-6H227a15,15,0,0,0,15-15.7l-1.31-28.23,53.19-3.24,1.26,10a14.94,14.94,0,0,0,4.15,8.62L311,761a15,15,0,0,0,10.73,4.52H360a15,15,0,0,0,12.43-6.6l266.38-14.42A15,15,0,0,0,653,729.06l-6.94-239a15,15,0,0,0-5.68-11.32l-8.83-159.91a15,15,0,0,0,6.45-13l-12-283A15,15,0,0,0,611,8.5l-.73,0h0l0,0A15,15,0,0,0,600,4.5c-.39,0-.78,0-1.17,0L561.37,7.48a15,15,0,0,0-12.68-7Z"/>
  <path d="M70,174.5,67.28,64.56H62.13s-.07-4-.06-7.07L18.65,59.83l5.28,105.29,51.7,47.38L92,195.5Z" fill="#fff"/>
  <rect x="106.5" y="736" width="36" height="18" fill="#fff"/>
  <rect x="465.5" y="238" width="58" height="53" fill="#fff"/>
  <rect x="232.5" y="131" width="18" height="31" fill="#fff"/>
  <polygon points="488.5 365 471.5 381 506 414.41 523.5 399 488.5 365" fill="#fff"/>
  <path d="M348.22,280.6,345.5,284l81-3-3-56.67-76,3.67A41.4,41.4,0,0,1,348.22,280.6Z" fill="#fff"/>
  <polygon points="612.89 307.57 614.22 307 577.5 307 577.5 452 620.87 452 613 309.67 612.89 307.57" fill="#fff"/>
  <polygon points="137.28 224 135.72 191 96.5 191 93.72 195.5 124.5 224 137.28 224" fill="#fff"/>
  <path d="M142,366.5l79-6.61-2.68-34.38A75,75,0,0,1,181.83,232H157l1,58.5-19,15Z" fill="#fff"/>
  <path d="M183.93,227A75.31,75.31,0,0,1,221,190.21V107.28c-29.65.72-51.95,1.22-56,1.22L168,227Z" fill="#fff"/>
  <polygon points="173.28 385 176.79 430.08 246.99 426.37 246 397.5 230.17 392.5 230.17 381.22 173.28 385" fill="#fff"/>
  <polygon points="248.9 431.27 43.93 442.11 49.78 525.96 249.95 514.34 248.9 431.27" fill="#fff"/>
  <polygon points="168.85 567.81 266.91 566.23 265.08 518.46 167.07 524.16 168.85 567.81" fill="#fff"/>
  <polygon points="187.88 572.5 191.5 711.44 225.5 711.44 225.5 697 245.5 694 239.94 571.66 187.88 572.5" fill="#fff"/>
  <path d="M342,550.48,303.5,552s1.5,46.5,1.5,47.5-3,0-3,0l5,93,41.28-1Z" fill="#fff"/>
  <polygon points="346.98 550.29 350.83 636.37 390 634.5 393 686.5 409.13 686.11 403.09 548.08 346.98 550.29" fill="#fff"/>
  <polygon points="419 127.55 445.92 124.75 442.77 32.51 419 33.9 419 127.55" fill="#fff"/>
  <polygon points="423.5 132.11 423.5 180.33 510.5 175 510.5 200.33 615.22 193.83 608.13 26.64 600.15 27.03 597 27.19 597 24.04 597 22.75 549.24 26.49 546.13 26.73 546 23.62 545.8 18.5 537.09 18.5 463 22.72 463 28.5 463 31.33 460.18 31.5 447.76 32.22 451.08 129.25 423.5 132.11" fill="#fff"/>
  <path d="M411,102.5l-40.5,1v92h46.93Z" fill="#fff"/>
  <path d="M309.9,195.5h15.92l-3.88-90.72-34.94.88v71.92A80.18,80.18,0,0,1,309.9,195.5Z" fill="#fff"/>
  <path d="M365.5,195.5V103.67l-38.56,1,3.88,90.85Z" fill="#fff"/>
  <rect x="334.5" y="713.5" width="14" height="9" fill="#fff"/>
  <rect x="334.5" y="702" width="14" height="6.5" fill="#fff"/>
  <rect x="334.5" y="727.5" width="14" height="10.5" fill="#fff"/>
  <path d="M362.18,464.8c-28.52,1-53.87,1.88-67.38,2.5l3.2,51.2,66.08-3.85Z" fill="#fff"/>
  <path d="M367,459.61c18.87-.63,42-1.37,70.33-2.25l-.69-14c-22.19.69-47.06,1.49-70.17,2.27Z" fill="#fff"/>
  <polygon points="360.6 423.56 315.5 425 313.5 397 290.42 397.5 294.5 462 361.5 460 360.6 423.56" fill="#fff"/>
  <path d="M366.26,440.64c18.79-.63,41.83-1.38,70.11-2.25L436,420.5l-70.4,2.86Z" fill="#fff"/>
  <path d="M382.62,315.56l1.65,71.94H389v31.05c13.27-.45,28.6-.95,46.31-1.5L433.72,385,430,377.5l-4.36-63.07Z" fill="#fff"/>
  <polygon points="328.56 379.88 327.64 317.01 317.36 317.28 287 343 289.4 381.3 328.56 379.88" fill="#fff"/>
  <polygon points="379.27 387.5 377.62 315.69 332.64 316.88 333.56 379.7 339 379.5 339 387.5 379.27 387.5" fill="#fff"/>
  <polygon points="566.5 497 571.08 622.6 631.85 621.19 628.19 495.21 566.5 497" fill="#fff"/>
  <path d="M632.08,629C586.82,630.7,433.2,636.55,412,637.4L414.13,686,434,685.5l2,43h12l1.49,8.2,185.43-10Z" fill="#fff"/>
  <path d="M518.73,471.27l-.88-44.84-12,12L472,404.5v62.95c2-.23,4-.44,6-.58A113.11,113.11,0,0,1,518.73,471.27Z" fill="#fff"/>
  <path d="M437.56,462.35c-22.19.69-47.16,1.5-70.38,2.28l1.9,49.73L401,512.5l.3-.78a54.58,54.58,0,0,1,26.4-29.15,91.12,91.12,0,0,1,10.58-5.76Z" fill="#fff"/>
  <path d="M523,569.48a100.64,100.64,0,0,1-39.86,9c-32.62,1.57-61.34-10.08-75-28.44l3.61,82.37c14.33-.57,88.33-3.4,149.14-5.72L557.5,542h-.24C550.27,553.27,538.22,562.92,523,569.48Z" fill="#fff"/>
  <polygon id="lift" points="253.32 250 253.32 253.86 255.64 253.86 255.64 263.14 246.36 263.14 246.36 253.86 249.07 253.86 249.07 250 242.5 250 242.5 267 259.5 267 259.5 250 253.32 250" fill="#fff"/>
  <polygon id="lift-2" data-name="lift" points="272.32 250 272.32 253.86 274.64 253.86 274.64 263.14 265.36 263.14 265.36 253.86 268.07 253.86 268.07 250 261.5 250 261.5 267 278.5 267 278.5 250 272.32 250" fill="#fff"/>
  <polygon id="lift-3" data-name="lift" points="590.46 475.32 594.33 475.26 594.29 472.94 603.56 472.79 603.71 482.06 594.44 482.21 594.4 479.51 590.53 479.57 590.64 486.14 607.64 485.86 607.36 468.86 590.36 469.14 590.46 475.32" fill="#fff"/>
  <path d="M570.91,481l-4.59-79H530.5v10.78h-7.92L523.76,473A82,82,0,0,1,540,481Z" fill="#fff"/>
  <g id="toilet">
    <path d="M132.33,402.46H125c-1.33,0-1.89.73-1.55,2,.4,1.56.76,3.15,1.24,4.69a24.78,24.78,0,0,1,1.16,9.24c0,.67,0,1.35,0,2a1.37,1.37,0,0,0,1.45,1.49c.79,0,1.58,0,2.37,0,1.24,0,1.72-.49,1.72-1.73,0-2,0-4,0-6.06a4.59,4.59,0,0,1,.13-1.1c.75-2.89,1.51-5.77,2.26-8.66A1.39,1.39,0,0,0,132.33,402.46Z" fill="#fff"/>
    <path d="M146.44,414.37q-1.09-5.31-2.18-10.61a1.42,1.42,0,0,0-1.54-1.3c-.95,0-1.9,0-2.86,0a1.46,1.46,0,0,0-1.68,1.38q-1.11,5.37-2.19,10.75a1.39,1.39,0,0,0,1.35,1.77c.34,0,.68,0,1.1,0,0,1.34,0,2.61,0,3.88a1.51,1.51,0,0,0,1.72,1.69H142c1.61,0,2-.4,2-2v-3.57h.86C146.13,416.35,146.7,415.64,146.44,414.37Z" fill="#fff"/>
    <path d="M141.24,401a3.47,3.47,0,1,0-3.46-3.46A3.47,3.47,0,0,0,141.24,401Z" fill="#fff"/>
    <path d="M128.69,401a3.46,3.46,0,1,0-3.51-3.41A3.51,3.51,0,0,0,128.69,401Z" fill="#fff"/>
  </g>
  <g id="toilet-2" data-name="toilet">
    <path d="M335.85,58.46h-7.31c-1.34,0-1.9.74-1.56,2,.41,1.57.76,3.15,1.25,4.69a25,25,0,0,1,1.15,9.24c0,.67,0,1.35,0,2a1.37,1.37,0,0,0,1.46,1.49c.78,0,1.57,0,2.36,0,1.24,0,1.72-.48,1.73-1.73,0-2,0-4,0-6.06a5,5,0,0,1,.13-1.09q1.13-4.33,2.27-8.67A1.4,1.4,0,0,0,335.85,58.46Z" fill="#fff"/>
    <path d="M350,70.37q-1.08-5.31-2.18-10.61a1.42,1.42,0,0,0-1.54-1.3c-1,0-1.9,0-2.85,0a1.47,1.47,0,0,0-1.69,1.38L339.5,70.59a1.39,1.39,0,0,0,1.35,1.77c.34,0,.68,0,1.1,0,0,1.34,0,2.61,0,3.88a1.52,1.52,0,0,0,1.73,1.7h1.81c1.6,0,2-.41,2-2V72.36h.86C349.64,72.35,350.21,71.64,350,70.37Z" fill="#fff"/>
    <path d="M344.75,57a3.47,3.47,0,1,0-3.45-3.46A3.48,3.48,0,0,0,344.75,57Z" fill="#fff"/>
    <path d="M332.2,57a3.47,3.47,0,1,0-3.5-3.42A3.52,3.52,0,0,0,332.2,57Z" fill="#fff"/>
  </g>
  <g id="Escalator">
    <path d="M493.36,514.21c-1.11,0-2.23,0-3.34,0a4.07,4.07,0,0,0-3.08,1.34c-1,1-2,2-3.06,3.08,0-.54,0-1-.11-1.35a1.5,1.5,0,0,0-1.65-1.27,1.48,1.48,0,0,0-1.5,1.37,9.23,9.23,0,0,0,0,2.1,4.51,4.51,0,0,1-1.68,4.14c-1.16,1.1-2.24,1.88-3.92,1.63a2.7,2.7,0,0,0-2.17.72,3.24,3.24,0,0,0-.93,3.44,3.12,3.12,0,0,0,2.91,2.22c1.05,0,2.11,0,3.16,0a4,4,0,0,0,3-1.24c2.72-2.71,5.52-5.35,8.15-8.16a4.7,4.7,0,0,1,4.14-1.69,3.12,3.12,0,0,0,3.25-3.17A3.18,3.18,0,0,0,493.36,514.21Zm.85,3.15a.93.93,0,0,1-1,.95c-.62,0-1.23,0-1.8,0a3.22,3.22,0,0,0-2.56,1L485.24,523c-1.8,1.79-3.67,3.65-5.48,5.51a2.46,2.46,0,0,1-2.1.86H476.1c-.38,0-.75,0-1.11,0a1,1,0,0,1-1-.86.85.85,0,0,1,.14-.69.8.8,0,0,1,.61-.28c.56,0,1.16,0,1.88,0a3.38,3.38,0,0,0,2.61-1.06c1.65-1.68,3.35-3.37,5-5l4.38-4.39a1.78,1.78,0,0,1,1.4-.62c.62,0,1.24,0,1.85,0h1.38A.92.92,0,0,1,494.21,517.36Z" fill="#fff"/>
    <path d="M482.19,515.71a1.64,1.64,0,1,0-1.62-1.62A1.62,1.62,0,0,0,482.19,515.71Z" fill="#fff"/>
  </g>
</svg>
